<?xml version="1.0" encoding="utf-8"?>
<!-- Generator: Adobe Illustrator 27.2.0, SVG Export Plug-In . SVG Version: 6.00 Build 0)  -->
<svg version="1.1" id="Layer_1" xmlns="http://www.w3.org/2000/svg" xmlns:xlink="http://www.w3.org/1999/xlink" x="0px" y="0px"
	 viewBox="0 0 700 700" style="enable-background:new 0 0 700 700;" xml:space="preserve">
<style type="text/css">
	.st0{fill-rule:evenodd;clip-rule:evenodd;fill:#AA00AA;}
</style>
<g>
	<path class="st0" d="M551.8,544.6h-282c-18.6,0-33.6-15-33.6-33.6v-19.7h-53.8c-0.6,0-1.2-0.2-1.9-0.2h-49
		c-9.3,0-16.8-7.5-16.8-16.8v-6.7c0-9.3,7.5-16.8,16.8-16.8h17.3V189c0-18.6,15-33.6,33.6-33.6h329.1c18.6,0,33.6,15,33.6,33.6v19.7
		h6.7c18.6,0,33.6,15,33.6,33.6V511C585.4,529.6,570.3,544.6,551.8,544.6L551.8,544.6z M276.3,490.9c0,7.4,6,13.4,13.4,13.4h67.4
		c7.4,0,13.4-6,13.4-13.4V343.2c0-7.4-6-13.4-13.4-13.4h-67.4c-7.4,0-13.4,6-13.4,13.4V490.9z M491.5,195.9H202.3
		c-7.4,0-13.4,6-13.4,13.4v228.4c0,6.5,4.6,11.9,10.7,13.2h36.5l0-127.9c0-18.6,15-33.6,33.6-33.6h60.5v-47
		c0-18.6,15-33.6,33.6-33.6h141.1C504.5,201.5,498.7,195.9,491.5,195.9L491.5,195.9z M545.2,262.6c0-7.4-6-13.4-13.4-13.4h-148
		c-7.4,0-13.4,6-13.4,13.4v26.7h6.7c18.6,0,33.6,15,33.6,33.6v181.5h121.2c7.4,0,13.4-6,13.4-13.4L545.2,262.6z M457.6,491.4
		c-11.3,0-20.4-9.2-20.4-20.4c0-11.3,9.2-20.4,20.4-20.4c11.3,0,20.4,9.2,20.4,20.4C478.1,482.2,468.9,491.4,457.6,491.4z
		 M323.2,450.5c11.3,0,20.4,9.2,20.4,20.4c0,11.3-9.2,20.4-20.4,20.4c-11.3,0-20.4-9.2-20.4-20.4
		C302.8,459.6,311.9,450.5,323.2,450.5z"/>
</g>
</svg>
