<?xml version="1.0" encoding="utf-8"?>
<!-- Generator: Adobe Illustrator 27.2.0, SVG Export Plug-In . SVG Version: 6.00 Build 0)  -->
<svg version="1.1" id="Layer_1" xmlns="http://www.w3.org/2000/svg" xmlns:xlink="http://www.w3.org/1999/xlink" x="0px" y="0px"
	 viewBox="0 0 700 700" style="enable-background:new 0 0 700 700;" xml:space="preserve">
<style type="text/css">
	.st0{fill:#00AAAA;}
</style>
<g>
	<path class="st0" d="M493.8,404.5c11.6-34.6,64.2-17,52.6,17.6c-30.9,92.3-117.8,154.8-215.1,154.8
		C206,576.9,104.4,475.3,104.4,350c0-125.3,101.6-226.9,226.9-226.9c84.7,0,160.4,47,199.4,118.4L541,207
		c10.4-35,63.7-19.2,53.3,15.9l-32.3,108.2c-5.5,18.3-20.8,32.6-41.3,21.5l-98.4-52.9c-32.2-17.3-5.9-66.2,26.3-48.9l33.7,18.1
		c-29.2-54.3-86.6-90.1-150.9-90.1c-94.6,0-171.2,76.7-171.2,171.2c0,94.6,76.7,171.2,171.2,171.2
		C405,521.2,470.4,474.4,493.8,404.5L493.8,404.5z"/>
</g>
</svg>
